<?xml version="1.0" encoding="utf-8"?>
<!-- Generator: Adobe Illustrator 16.0.3, SVG Export Plug-In . SVG Version: 6.00 Build 0)  -->
<!DOCTYPE svg PUBLIC "-//W3C//DTD SVG 1.1//EN" "http://www.w3.org/Graphics/SVG/1.1/DTD/svg11.dtd">
<svg version="1.1" id="Warstwa_1" xmlns="http://www.w3.org/2000/svg" xmlns:xlink="http://www.w3.org/1999/xlink" x="0px" y="0px"
	 width="918px" height="182.667px" viewBox="0 0 918 182.667" enable-background="new 0 0 918 182.667" xml:space="preserve">
<g>
	<path fill-rule="evenodd" clip-rule="evenodd" fill="#FF0000" d="M58.601,7.352C26.71,11.291,2.756,38.502,2.756,70.615
		c0,32.113,23.955,59.324,55.845,63.263c2.623,0.324,5.265,0.488,7.908,0.488s5.286-0.164,7.908-0.488
		c6.497-0.803,12.664-2.574,18.366-5.152h0.549h1.892h3.488c3.762,0,6.875,3.113,6.875,6.875s-3.113,6.875-6.875,6.875H72.347h-8.54
		H53.411H37.806H27.047c-9.501,0-17.271,7.77-17.271,17.27c0,2.441,0.513,4.766,1.436,6.875c2.669,6.104,8.774,10.396,15.835,10.396
		h45.3h57.913v-10.396H72.347H61.951H27.047c-3.762,0-6.875-3.113-6.875-6.875s3.114-6.875,6.875-6.875h10.759h15.605h18.936h26.365
		c7.211-0.744,12.71-3.25,15.835-10.395c0.923-2.111,1.436-4.436,1.436-6.875c0-6.68-3.842-12.504-9.426-15.375
		c14.536-11.766,23.703-29.75,23.703-49.611c0-32.112-23.953-59.323-55.843-63.263c-2.622-0.324-5.265-0.489-7.908-0.489
		S61.224,7.027,58.601,7.352L58.601,7.352z M75.985,18.099c25.392,4.532,43.879,26.748,43.879,52.517
		c0,26.042-18.858,48.371-44.564,52.63c-2.904,0.482-5.847,0.727-8.791,0.727c-2.947,0-5.895-0.242-8.801-0.727l-0.611-0.102
		c-0.038-0.006-0.071-0.014-0.11-0.02c-25.371-4.549-43.834-26.758-43.834-52.509c0-26.044,18.857-48.371,44.566-52.63
		c2.903-0.482,5.846-0.727,8.791-0.727c2.945,0,5.89,0.243,8.794,0.725l0.574,0.096C75.916,18.086,75.948,18.091,75.985,18.099
		L75.985,18.099z M123.959,2.982c-4.849,0-8.776,3.927-8.776,8.775s3.927,8.774,8.776,8.774c4.847,0,8.775-3.927,8.775-8.774
		C132.734,6.909,128.808,2.982,123.959,2.982L123.959,2.982z"/>
	<path fill-rule="evenodd" clip-rule="evenodd" fill="#FF0000" d="M306.5,132.076h10.394V60.537
		c0-22.549,18.439-40.989,40.989-40.989s40.989,18.44,40.989,40.989v71.539h10.395V60.538c0-22.549,18.439-40.99,40.988-40.99
		c22.548,0,40.988,18.44,40.988,40.989v71.539h10.395V60.538c0-28.255-23.127-51.383-51.382-51.383
		c-14.509,0-28.295,6.185-38.031,16.928c-2.098,2.314-5.03,3.614-8.153,3.614c-3.124,0-6.056-1.299-8.154-3.614
		c-9.737-10.743-23.523-16.928-38.034-16.928c-28.255,0-51.382,23.128-51.382,51.383V132.076L306.5,132.076z"/>
	<path fill-rule="evenodd" clip-rule="evenodd" fill="#FF0000" d="M750.021,132.076h10.395V60.538
		c0-25.237-18.629-46.939-43.568-50.786c-2.584-0.399-5.199-0.598-7.814-0.598s-5.23,0.199-7.814,0.598
		c-24.939,3.846-43.568,25.549-43.568,50.786v71.538h10.393V60.537c0-19.107,13.393-35.798,32.025-39.992
		c2.941-0.661,5.951-0.997,8.965-0.997s6.025,0.334,8.965,0.996c18.631,4.195,32.023,20.887,32.023,39.993V132.076L750.021,132.076z
		"/>
	<path fill-rule="evenodd" clip-rule="evenodd" fill="#FF0000" d="M210.439,7.352c-31.891,3.939-55.844,31.152-55.844,63.264
		c0,32.113,23.954,59.324,55.844,63.263c2.623,0.324,5.265,0.488,7.908,0.488c2.643,0,5.286-0.164,7.908-0.488
		c31.89-3.939,55.844-31.15,55.844-63.263c0-32.112-23.953-59.323-55.844-63.263c-2.622-0.324-5.265-0.489-7.908-0.489
		C215.704,6.863,213.062,7.027,210.439,7.352L210.439,7.352z M227.824,18.099c25.392,4.532,43.879,26.748,43.879,52.517
		c0,26.044-18.858,48.371-44.566,52.63c-2.903,0.482-5.847,0.727-8.791,0.727c-2.946,0-5.893-0.242-8.798-0.727l-0.611-0.102
		c-0.04-0.006-0.073-0.012-0.113-0.02c-25.371-4.549-43.834-26.758-43.834-52.509c0-26.044,18.858-48.371,44.566-52.63
		c2.903-0.482,5.847-0.727,8.791-0.727c2.945,0,5.89,0.243,8.795,0.725l0.574,0.096C227.755,18.086,227.787,18.091,227.824,18.099
		L227.824,18.099z"/>
	<path fill-rule="evenodd" clip-rule="evenodd" fill="#FF0000" d="M621.136,11.446h10.395v71.537
		c0,25.237-18.629,46.94-43.568,50.786c-2.584,0.398-5.199,0.598-7.814,0.598s-5.23-0.199-7.814-0.598
		c-24.939-3.846-43.568-25.549-43.568-50.786V11.446h10.395v71.538c0,19.107,13.391,35.798,32.023,39.992
		c2.941,0.662,5.951,0.996,8.965,0.996s6.025-0.332,8.965-0.994c18.633-4.195,32.023-20.889,32.023-39.994V11.446L621.136,11.446z"
		/>
	<path fill-rule="evenodd" clip-rule="evenodd" fill="#FF0000" d="M843.583,7.352c-31.893,3.939-55.844,31.152-55.844,63.264
		c0,32.113,23.953,59.324,55.844,63.263c2.621,0.324,5.264,0.488,7.906,0.488s5.287-0.164,7.908-0.488
		c31.891-3.939,55.844-31.15,55.844-63.263c0-32.112-23.953-59.323-55.844-63.263c-2.621-0.324-5.266-0.489-7.908-0.489
		S846.205,7.027,843.583,7.352L843.583,7.352z M860.968,18.099c25.391,4.532,43.879,26.748,43.879,52.517
		c0,26.044-18.857,48.371-44.566,52.63c-2.902,0.482-5.846,0.727-8.791,0.727s-5.893-0.242-8.797-0.727l-0.611-0.102
		c-0.041-0.006-0.074-0.012-0.113-0.02c-25.371-4.549-43.834-26.758-43.834-52.509c0-26.044,18.857-48.371,44.566-52.63
		c2.902-0.482,5.846-0.727,8.789-0.727c2.945,0,5.891,0.243,8.795,0.725l0.574,0.096C860.898,18.086,860.931,18.091,860.968,18.099
		L860.968,18.099z"/>
</g>
</svg>
